<svg width="265" height="46" fill="none" xmlns="http://www.w3.org/2000/svg"><g filter="url(#prefix__filter0_d_3_2)"><path d="M4 9.28h3.2v3.36h.16c1.333-2.56 3.453-3.84 6.36-3.84 2.533 0 4.507.947 5.92 2.84 1.44 1.893 2.16 4.547 2.16 7.96 0 3.413-.72 6.067-2.16 7.96-1.413 1.893-3.387 2.84-5.92 2.84-2.907 0-5.027-1.28-6.36-3.84H7.2v11.36H4V9.28zm8.48 18.28c1.867 0 3.307-.56 4.32-1.68 1.04-1.147 1.56-2.653 1.56-4.52v-3.52c0-1.867-.52-3.36-1.56-4.48-1.013-1.147-2.453-1.72-4.32-1.72-.72 0-1.4.093-2.04.28-.64.187-1.2.467-1.68.84-.48.347-.867.787-1.16 1.32-.267.507-.4 1.107-.4 1.8v7.44c0 .693.133 1.307.4 1.84.293.507.68.947 1.16 1.32.48.347 1.04.613 1.68.8.64.187 1.32.28 2.04.28zm14.784-.36h6.04V12h-6.04V9.28h9.24v5.2h.2c.427-1.627 1.227-2.893 2.4-3.8 1.2-.933 2.72-1.4 4.56-1.4h2.88v3.2h-3.88c-1.84 0-3.333.533-4.48 1.6-1.12 1.067-1.68 2.467-1.68 4.2v8.92h8v2.72h-17.24V27.2zm32.905 3.2c-1.44 0-2.747-.253-3.92-.76a8.493 8.493 0 01-2.96-2.16c-.8-.96-1.414-2.093-1.84-3.4-.427-1.333-.64-2.827-.64-4.48 0-1.627.213-3.107.64-4.44.426-1.333 1.04-2.467 1.84-3.4a8.276 8.276 0 012.96-2.2c1.173-.507 2.48-.76 3.92-.76s2.733.253 3.88.76a7.84 7.84 0 012.96 2.2c.826.933 1.453 2.067 1.88 3.4.426 1.333.64 2.813.64 4.44 0 1.653-.214 3.147-.64 4.48-.427 1.307-1.054 2.44-1.88 3.4a8.032 8.032 0 01-2.96 2.16c-1.147.507-2.44.76-3.88.76zm0-2.76c1.786 0 3.226-.533 4.32-1.6 1.093-1.067 1.64-2.72 1.64-4.96v-2.96c0-2.24-.547-3.893-1.64-4.96-1.094-1.067-2.534-1.6-4.32-1.6-1.787 0-3.227.533-4.32 1.6-1.094 1.067-1.64 2.72-1.64 4.96v2.96c0 2.24.546 3.893 1.64 4.96 1.093 1.067 2.533 1.6 4.32 1.6zm14.424 2.28l7.68-10.48-7.48-10.16h3.84l3.12 4.36 2.48 3.44h.16l2.4-3.44 3.08-4.36h3.68l-7.56 10.12 7.76 10.52h-3.84l-3.48-4.84-2.36-3.28h-.16l-2.28 3.28-3.36 4.84h-3.68zm34.825-25.2c-.934 0-1.587-.187-1.96-.56-.374-.4-.56-.893-.56-1.48v-.64c0-.587.186-1.067.56-1.44.373-.4 1.026-.6 1.96-.6.933 0 1.586.2 1.96.6.373.373.56.853.56 1.44v.64c0 .587-.187 1.08-.56 1.48-.374.373-1.027.56-1.96.56zm-9.04 22.48h7.44V12h-7.44V9.28h10.64V27.2h6.96v2.72h-17.6V27.2zm21.904 2.72V9.28h2.96v2.4h.16c.32-.8.773-1.48 1.36-2.04.587-.56 1.453-.84 2.6-.84 1.2 0 2.093.307 2.68.92.587.587.947 1.36 1.08 2.32h.12c.373-.933.907-1.707 1.6-2.32.693-.613 1.653-.92 2.88-.92 1.68 0 2.8.587 3.36 1.76.587 1.173.88 2.853.88 5.04v14.32h-2.96v-13.8c0-1.76-.187-2.973-.56-3.64-.347-.693-1-1.04-1.96-1.04-.853 0-1.547.28-2.08.84-.533.533-.8 1.36-.8 2.48v15.16h-2.96v-13.8c0-1.76-.187-2.973-.56-3.64-.347-.693-.987-1.04-1.92-1.04-.853 0-1.56.28-2.12.84-.533.533-.8 1.36-.8 2.48v15.16h-2.96zm41.624 0c-1.253 0-2.146-.32-2.68-.96-.533-.64-.866-1.44-1-2.4h-.2c-.453 1.2-1.186 2.147-2.2 2.84-.986.667-2.32 1-4 1-2.16 0-3.88-.56-5.16-1.68-1.28-1.12-1.92-2.653-1.92-4.6 0-1.92.694-3.4 2.08-4.44 1.414-1.04 3.68-1.56 6.8-1.56h4.4v-2.04c0-1.52-.426-2.653-1.28-3.4-.853-.773-2.066-1.16-3.64-1.16-1.386 0-2.52.28-3.4.84a6.005 6.005 0 00-2.12 2.2l-2.16-1.6a7.164 7.164 0 011.08-1.56 6.49 6.49 0 011.68-1.32 8.34 8.34 0 012.28-.92c.854-.24 1.8-.36 2.84-.36 2.427 0 4.347.613 5.76 1.84 1.44 1.227 2.16 2.933 2.16 5.12v11.36h2.88v2.8h-2.2zm-9.52-2.2c.827 0 1.574-.093 2.24-.28a7.454 7.454 0 001.8-.8c.507-.347.894-.747 1.16-1.2.294-.48.44-.987.44-1.52v-3.4h-4.4c-1.92 0-3.32.267-4.2.8-.88.533-1.32 1.307-1.32 2.32v.84c0 1.067.374 1.88 1.12 2.44.774.533 1.827.8 3.16.8z" fill="#FBF1C7"/></g><g filter="url(#prefix__filter1_d_3_2)"><path d="M180.2 23.68c-1.12 0-2.08-.133-2.88-.4-.773-.267-1.413-.627-1.92-1.08a4.24 4.24 0 01-1.04-1.68 6.549 6.549 0 01-.32-2.08v-1.36c0-.747.107-1.44.32-2.08.213-.64.56-1.187 1.04-1.64.507-.48 1.147-.853 1.92-1.12.8-.267 1.76-.4 2.88-.4 1.12 0 2.067.133 2.84.4.8.267 1.44.64 1.92 1.12.507.453.867 1 1.08 1.64.213.64.32 1.333.32 2.08v1.36c0 .747-.107 1.44-.32 2.08-.213.64-.573 1.2-1.08 1.68-.48.453-1.12.813-1.92 1.08-.773.267-1.72.4-2.84.4z" fill="#FB4934"/></g><g filter="url(#prefix__filter2_d_3_2)"><path d="M195.28 27.2h6.04V12h-6.04V9.28h9.24v5.2h.2c.427-1.627 1.227-2.893 2.4-3.8 1.2-.933 2.72-1.4 4.56-1.4h2.88v3.2h-3.88c-1.84 0-3.333.533-4.48 1.6-1.12 1.067-1.68 2.467-1.68 4.2v8.92h8v2.72h-17.24V27.2zm33.264 3.2c-1.493 0-2.84-.253-4.04-.76a8.805 8.805 0 01-3.04-2.16c-.826-.96-1.466-2.093-1.92-3.4-.453-1.333-.68-2.813-.68-4.44 0-1.653.227-3.147.68-4.48.48-1.333 1.134-2.467 1.96-3.4a8.286 8.286 0 012.96-2.2c1.174-.507 2.467-.76 3.88-.76 1.387 0 2.64.253 3.76.76a8.325 8.325 0 012.92 2.12c.8.88 1.414 1.933 1.84 3.16.427 1.227.64 2.573.64 4.04v1.52h-15.28v.96c0 .907.147 1.747.44 2.52.294.773.707 1.44 1.24 2 .56.56 1.227 1 2 1.32.8.293 1.68.44 2.64.44 1.387 0 2.587-.32 3.6-.96 1.014-.64 1.787-1.52 2.32-2.64l2.36 1.6c-.613 1.387-1.64 2.533-3.08 3.44-1.413.88-3.146 1.32-5.2 1.32zm-.2-18.96a6.13 6.13 0 00-4.4 1.8 6.437 6.437 0 00-1.28 2c-.293.747-.44 1.573-.44 2.48V18h11.84v-.44c0-.907-.146-1.733-.44-2.48a5.355 5.355 0 00-1.16-1.92 4.628 4.628 0 00-1.8-1.28c-.693-.293-1.466-.44-2.32-.44zm28.825 15.12h-.16c-1.334 2.56-3.454 3.84-6.36 3.84-2.534 0-4.52-.947-5.96-2.84-1.414-1.893-2.12-4.547-2.12-7.96 0-3.413.706-6.067 2.12-7.96 1.44-1.893 3.426-2.84 5.96-2.84 2.906 0 5.026 1.28 6.36 3.84h.16V.32h3.2v29.6h-3.2v-3.36zm-5.28 1c.72 0 1.4-.093 2.04-.28.64-.187 1.2-.453 1.68-.8.48-.373.853-.813 1.12-1.32.293-.533.44-1.147.44-1.84v-7.44c0-.693-.147-1.293-.44-1.8a3.581 3.581 0 00-1.12-1.32 4.974 4.974 0 00-1.68-.84 7.25 7.25 0 00-2.04-.28c-1.867 0-3.32.573-4.36 1.72-1.014 1.12-1.52 2.613-1.52 4.48v3.52c0 1.867.506 3.373 1.52 4.52 1.04 1.12 2.493 1.68 4.36 1.68z" fill="#FBF1C7"/></g><defs><filter id="prefix__filter0_d_3_2" x="0" y="0" width="170.106" height="45.92" filterUnits="userSpaceOnUse" color-interpolation-filters="sRGB"><feFlood flood-opacity="0" result="BackgroundImageFix"/><feColorMatrix in="SourceAlpha" values="0 0 0 0 0 0 0 0 0 0 0 0 0 0 0 0 0 0 127 0" result="hardAlpha"/><feOffset dy="4"/><feGaussianBlur stdDeviation="2"/><feComposite in2="hardAlpha" operator="out"/><feColorMatrix values="0 0 0 0 0 0 0 0 0 0 0 0 0 0 0 0 0 0 0.25 0"/><feBlend in2="BackgroundImageFix" result="effect1_dropShadow_3_2"/><feBlend in="SourceGraphic" in2="effect1_dropShadow_3_2" result="shape"/></filter><filter id="prefix__filter1_d_3_2" x="170.04" y="11.84" width="20.32" height="19.84" filterUnits="userSpaceOnUse" color-interpolation-filters="sRGB"><feFlood flood-opacity="0" result="BackgroundImageFix"/><feColorMatrix in="SourceAlpha" values="0 0 0 0 0 0 0 0 0 0 0 0 0 0 0 0 0 0 127 0" result="hardAlpha"/><feOffset dy="4"/><feGaussianBlur stdDeviation="2"/><feComposite in2="hardAlpha" operator="out"/><feColorMatrix values="0 0 0 0 0 0 0 0 0 0 0 0 0 0 0 0 0 0 0.25 0"/><feBlend in2="BackgroundImageFix" result="effect1_dropShadow_3_2"/><feBlend in="SourceGraphic" in2="effect1_dropShadow_3_2" result="shape"/></filter><filter id="prefix__filter2_d_3_2" x="191.28" y=".32" width="73.089" height="38.08" filterUnits="userSpaceOnUse" color-interpolation-filters="sRGB"><feFlood flood-opacity="0" result="BackgroundImageFix"/><feColorMatrix in="SourceAlpha" values="0 0 0 0 0 0 0 0 0 0 0 0 0 0 0 0 0 0 127 0" result="hardAlpha"/><feOffset dy="4"/><feGaussianBlur stdDeviation="2"/><feComposite in2="hardAlpha" operator="out"/><feColorMatrix values="0 0 0 0 0 0 0 0 0 0 0 0 0 0 0 0 0 0 0.25 0"/><feBlend in2="BackgroundImageFix" result="effect1_dropShadow_3_2"/><feBlend in="SourceGraphic" in2="effect1_dropShadow_3_2" result="shape"/></filter></defs></svg>